<?xml version="1.0" encoding="iso-8859-1"?>
<!-- Uploaded to: SVG Repo, www.svgrepo.com, Generator: SVG Repo Mixer Tools -->
<!DOCTYPE svg PUBLIC "-//W3C//DTD SVG 1.1//EN" "http://www.w3.org/Graphics/SVG/1.1/DTD/svg11.dtd">
<svg height="800px" width="800px" version="1.1" id="Capa_1" xmlns="http://www.w3.org/2000/svg"
	xmlns:xlink="http://www.w3.org/1999/xlink" viewBox="0 0 498.363 498.363" xml:space="preserve" stroke="#c8a9c4"
	fill="#c8a9c4">
	<g>
		<path d="M466.504,176.32h-16.796c-11.295-25.385-28.246-47.635-49.641-65.315c0.027-0.306,0.047-0.613,0.047-0.926V28.917
		c0-4.601-2.996-8.667-7.392-10.029c-1.531-0.474-15.511-4.501-34.561,0.178c-17.017,4.181-41.49,16.462-62.118,51.055
		c-3.432-0.194-6.878-0.293-10.338-0.293H183.738c-54.481,0-103.364,24.409-136.306,62.858H31.858
		c-5.987,0-10.858-4.871-10.858-10.858v-16.019c0-5.987,4.871-10.858,10.858-10.858c5.799,0,10.5-4.701,10.5-10.5
		c0-5.799-4.701-10.5-10.5-10.5C14.292,73.949,0,88.241,0,105.808v16.019c0,17.567,14.292,31.858,31.858,31.858h0.067
		C14.42,181.383,4.271,214.174,4.271,249.294c0,64.053,33.736,120.366,84.367,152.13v48.256c0,17.567,14.292,31.858,31.858,31.858
		h39.514c17.566,0,31.858-14.292,31.858-31.858v-20.918h68.706v20.918c0,17.567,14.292,31.858,31.858,31.858h39.514
		c17.566,0,31.858-14.292,31.858-31.858v-38.755c8.223-3.984,16.175-8.613,23.79-13.875c27.342-18.89,48.702-44.64,62.114-74.783
		h16.796c17.567,0,31.859-14.292,31.859-31.858v-82.23C498.363,190.612,484.071,176.32,466.504,176.32z M379.114,37.853v58.172
		c-18.513-11.315-38.761-19.092-59.929-23.081C341.776,40.444,366.916,37.162,379.114,37.853z M160.01,460.539h-39.514
		c-5.987,0-10.858-4.871-10.858-10.858v-36.942c18.896,8.601,39.537,14.013,61.23,15.558v21.384
		C170.868,455.668,165.997,460.539,160.01,460.539z M342.804,449.68c0,5.987-4.871,10.858-10.858,10.858h-39.514
		c-5.987,0-10.858-4.871-10.858-10.858v-20.918h4.131c19.63,0,38.857-3.153,57.099-9.27V449.68z M477.363,290.409
		c0,5.987-4.871,10.858-10.859,10.858H442.74c-4.3,0-8.164,2.621-9.755,6.616c-24.16,60.674-81.971,99.878-147.28,99.878H183.738
		c-87.38,0-158.468-71.088-158.468-158.468c0-87.379,71.088-158.467,158.468-158.467h101.967c65.31,0,123.12,39.204,147.28,99.877
		c1.591,3.995,5.455,6.616,9.755,6.616h23.764c5.988,0,10.859,4.871,10.859,10.858V290.409z" />
		<path d="M351.168,150.839c-16.978,0-30.79,13.813-30.79,30.791s13.813,30.791,30.79,30.791c16.978,0,30.79-13.813,30.79-30.791
		S368.146,150.839,351.168,150.839z M351.168,191.421c-5.398,0-9.79-4.392-9.79-9.791c0-5.399,4.392-9.791,9.79-9.791
		c5.398,0,9.79,4.392,9.79,9.791C360.958,187.029,356.566,191.421,351.168,191.421z" />
		<path d="M273.21,112.385h-79.026c-5.799,0-10.5,4.701-10.5,10.5c0,5.799,4.701,10.5,10.5,10.5h79.026c5.799,0,10.5-4.701,10.5-10.5
		C283.71,117.086,279.009,112.385,273.21,112.385z" />
	</g>
</svg>